<svg width="20" height="20" viewBox="0 0 20 20" fill="none" xmlns="http://www.w3.org/2000/svg">
  <path d="M8.16 2.56a1.2 1.2 0 0 1 1.15-.86h1.38a1.2 1.2 0 0 1 1.15.86l.24.81c.09.3.31.54.59.68l.75.37c.28.14.61.16.91.05l.79-.3a1.2 1.2 0 0 1 1.39.49l.69 1.2a1.2 1.2 0 0 1-.24 1.45l-.64.56a1.2 1.2 0 0 0-.4.8v.74c0 .31.14.61.4.8l.64.56c.43.38.53 1.01.24 1.45l-.69 1.2a1.2 1.2 0 0 1-1.39.49l-.79-.3a1.2 1.2 0 0 0-.91.05l-.75.37c-.28.14-.5.38-.59.68l-.24.81a1.2 1.2 0 0 1-1.15.86H9.31a1.2 1.2 0 0 1-1.15-.86l-.24-.81a1.2 1.2 0 0 0-.59-.68l-.75-.37a1.2 1.2 0 0 0-.91-.05l-.79.3a1.2 1.2 0 0 1-1.39-.49l-.69-1.2a1.2 1.2 0 0 1 .24-1.45l.64-.56c.26-.19.4-.49.4-.8v-.74c0-.31-.14-.61-.4-.8l-.64-.56a1.2 1.2 0 0 1-.24-1.45l.69-1.2a1.2 1.2 0 0 1 1.39-.49l.79.3c.3.11.63.09.91-.05l.75-.37c.28-.14.5-.38.59-.68l.24-.81Z" stroke="#536B8A" stroke-width="1.8" stroke-linecap="round" stroke-linejoin="round"/>
  <circle cx="10" cy="10" r="2.65" stroke="#536B8A" stroke-width="1.8"/>
</svg>
